# xmcd CD database file
#
# Track frame offsets:
#	150
#	19300
#	41625
#	60775
#
# Disc length: 1104 seconds
#
# Revision: 0
# Processed by: cddbd v1.5PL3 Copyright (c) Steve Scherf et al.
# Submitted via: CDex 1.50Beta7
#
DISCID=28044e04
DTITLE=裕木奈江 - この空が味方なら
DYEAR=1993
DGENRE=JPop
TTITLE0=この空が味方なら
TTITLE1=りんごでもいっしょに
TTITLE2=この空が味方なら (オリジナル・カラオケ)
TTITLE3=りんごでもいっしょに (オリジナル・カラオケ)
EXTD=YEAR: 1993
EXTT0=
EXTT1=
EXTT2=
EXTT3=
PLAYORDER=
